<?xml version="1.0" encoding="iso-8859-1"?>
<!-- Generator: Adobe Illustrator 18.0.0, SVG Export Plug-In . SVG Version: 6.00 Build 0)  -->
<!DOCTYPE svg PUBLIC "-//W3C//DTD SVG 1.1//EN" "http://www.w3.org/Graphics/SVG/1.1/DTD/svg11.dtd">
<svg xmlns="http://www.w3.org/2000/svg" xmlns:xlink="http://www.w3.org/1999/xlink" version="1.1" id="Capa_1" x="0px" y="0px" viewBox="0 0 54.757 54.757" style="enable-background:new 0 0 54.757 54.757;" xml:space="preserve" width="512px" height="512px">
<g>
	<path d="M49.918,51.392L38.072,31.086c-0.405-0.695-1.128-1.11-1.933-1.11c-0.805,0-1.528,0.415-1.933,1.11L22.361,51.392   c-0.409,0.7-0.412,1.539-0.008,2.242c0.404,0.703,1.129,1.123,1.94,1.123h23.691c0.811,0,1.536-0.42,1.939-1.123   C50.329,52.931,50.326,52.093,49.918,51.392z M48.19,52.638c-0.03,0.055-0.092,0.119-0.205,0.119H24.294   c-0.114,0-0.175-0.064-0.206-0.119s-0.056-0.14,0.001-0.238l11.845-20.306c0.057-0.098,0.143-0.118,0.206-0.118   c0.062,0,0.148,0.021,0.205,0.118L48.19,52.399C48.247,52.498,48.222,52.583,48.19,52.638z" fill="#D80027"/>
	<path d="M35.881,36.757c-0.552,0-1,0.447-1,1v8c0,0.553,0.448,1,1,1s1-0.447,1-1v-8C36.881,37.204,36.434,36.757,35.881,36.757z" fill="#D80027"/>
	<path d="M35.172,49.047c-0.18,0.189-0.29,0.45-0.29,0.71s0.11,0.52,0.29,0.7c0.18,0.189,0.44,0.3,0.71,0.3s0.53-0.11,0.71-0.29   c0.18-0.19,0.29-0.45,0.29-0.71s-0.11-0.521-0.29-0.71C36.221,48.677,35.541,48.677,35.172,49.047z" fill="#D80027"/>
	<path d="M36.14,26.976c1.856,0,3.59,0.996,4.524,2.6l0.106,0.181c3.754-7.666,2.427-18.211-3.502-24.139   C33.646,1.995,28.83,0,23.708,0c-5.123,0-9.938,1.995-13.56,5.617c-6.703,6.702-7.536,19.312-1.804,26.952L20.027,49.44   l11.589-19.866C32.549,27.972,34.283,26.976,36.14,26.976z M23.885,26c-3.859,0-7-3.141-7-7s3.141-7,7-7s7,3.141,7,7   S27.744,26,23.885,26z" fill="#D80027"/>
</g>
<g>
</g>
<g>
</g>
<g>
</g>
<g>
</g>
<g>
</g>
<g>
</g>
<g>
</g>
<g>
</g>
<g>
</g>
<g>
</g>
<g>
</g>
<g>
</g>
<g>
</g>
<g>
</g>
<g>
</g>
</svg>
